# xmcd CD database file
#
# Track frame offsets:
#	150
#	12737
#	25090
#	38367
#	51710
#	71592
#	83317
#	92667
#	107150
#	122287
#	147725
#
# Disc length: 2146 seconds
#
# Revision: 18
# Processed by: cddbd v1.5.2PL0 Copyright (c) Steve Scherf et al.
# Submitted via: CDex 1.51
#
DISCID=8c08600b
DTITLE=Quincy Jones - Big Band Bossa Nova
DYEAR=1962
DGENRE=Jazz
TTITLE0=Soul Bossa Nova
TTITLE1=Boogie Stop Shuffle (issued as "Boogie Bossa Nova")
TTITLE2=Desafinado
TTITLE3=Manha de Carnaval (Morning of the Carnival)
TTITLE4=Se E Tarde Me Pardoa (Forgive Me If I'm Late)
TTITLE5=On the Street Where You Live
TTITLE6=Samba de Una Nota So (One Note Samba)
TTITLE7=Lalo Bossa Nova
TTITLE8=Serenata
TTITLE9=Chega De Saudade (No More Blues)
TTITLE10=A Taste of Honey -- previously unissued
EXTD=YEAR: 1962
EXTT0=
EXTT1=
EXTT2=
EXTT3=
EXTT4=
EXTT5=
EXTT6=
EXTT7=
EXTT8=
EXTT9=
EXTT10=
PLAYORDER=
